<svg xmlns="http://www.w3.org/2000/svg" width="32" height="32" viewBox="0 0 32 32">
  <defs>
    <linearGradient id="plateGradient" x1="0%" y1="0%" x2="100%" y2="100%">
      <stop offset="0%" stop-color="#FF6B6B"/>
      <stop offset="50%" stop-color="#4ECDC4"/>
      <stop offset="100%" stop-color="#45B7D1"/>
    </linearGradient>
    <linearGradient id="utensils" x1="0%" y1="0%" x2="100%" y2="100%">
      <stop offset="0%" stop-color="#FFD93D"/>
      <stop offset="100%" stop-color="#FF8C42"/>
    </linearGradient>
  </defs>
  
  <!-- Main plate -->
  <circle cx="16" cy="16" r="12" fill="url(#plateGradient)" stroke="#2C3E50" stroke-width="1"/>
  
  <!-- Inner plate rim -->
  <circle cx="16" cy="16" r="9" fill="none" stroke="#34495E" stroke-width="0.5" opacity="0.3"/>
  
  <!-- Fork (left) -->
  <g fill="url(#utensils)">
    <rect x="6" y="8" width="1" height="8" rx="0.5"/>
    <rect x="5.5" y="8" width="0.4" height="3" rx="0.2"/>
    <rect x="6.6" y="8" width="0.4" height="3" rx="0.2"/>
    <rect x="5.2" y="8" width="0.4" height="2" rx="0.2"/>
    <rect x="6.8" y="8" width="0.4" height="2" rx="0.2"/>
  </g>
  
  <!-- Knife (right) -->
  <g fill="url(#utensils)">
    <rect x="25" y="8" width="1" height="8" rx="0.5"/>
    <rect x="24.5" y="8" width="2" height="1" rx="0.5"/>
  </g>
  
  <!-- Spoon (top) -->
  <g fill="url(#utensils)">
    <rect x="15.5" y="2" width="1" height="6" rx="0.5"/>
    <ellipse cx="16" cy="3" rx="1.5" ry="1"/>
  </g>
  
  <!-- Food items on plate -->
  <circle cx="14" cy="15" r="1.5" fill="#E74C3C" opacity="0.8"/>
  <circle cx="18" cy="17" r="1.2" fill="#F39C12" opacity="0.8"/>
  <circle cx="16" cy="18" r="1" fill="#27AE60" opacity="0.8"/>
</svg>